<svg xmlns="http://www.w3.org/2000/svg" viewBox="0 0 1200 630">
  <defs>
    <radialGradient id="g" cx="80%" cy="20%" r="80%">
      <stop offset="0%" stop-color="#c49228" stop-opacity="0.25"/>
      <stop offset="60%" stop-color="#1a2340" stop-opacity="0"/>
    </radialGradient>
    <linearGradient id="agGold" x1="0" y1="0" x2="0" y2="1">
      <stop offset="0" stop-color="#e9c66b"/><stop offset=".5" stop-color="#c2902f"/><stop offset="1" stop-color="#9c6f1f"/>
    </linearGradient>
  </defs>
  <rect width="1200" height="630" fill="#f0ebe0"/>
  <rect width="1200" height="630" fill="url(#g)"/>
  <g transform="translate(80,78)">
    <g transform="scale(1.35)">
      <path d="M32 17 L20 53 L44 53 Z" fill="#15171d"/>
      <path d="M8 58 L32 5 L56 58" fill="none" stroke="url(#agGold)" stroke-width="7" stroke-linejoin="round"/>
      <path d="M32 26 l1.9 6.1 6.1 1.9 -6.1 1.9 -1.9 6.1 -1.9 -6.1 -6.1 -1.9 6.1 -1.9 Z" fill="url(#agGold)"/>
      <path d="M5 52 Q33 41.5 59 49.5" fill="none" stroke="url(#agGold)" stroke-width="2.6" stroke-linecap="round"/>
      <path d="M20 47.7 L25 46.8" stroke="#161616" stroke-width="2.8"/>
      <path d="M25 46.8 L30 46.1" stroke="#DD0000" stroke-width="2.8"/>
      <path d="M30 46.1 L35 45.7" stroke="#F6C534" stroke-width="2.8"/>
    </g>
    <text x="112" y="40" font-family="Georgia,serif" font-size="31" font-weight="700" fill="#1a2340" letter-spacing="5">ARRIVAL</text>
    <text x="113" y="65" font-family="Georgia,serif" font-size="15" font-weight="500" fill="#c49228" letter-spacing="9">GERMANY</text>
  </g>
  <text x="80" y="290" font-family="Georgia,serif" font-size="78" font-weight="700" fill="#1a2340">
    <tspan x="80" dy="0">Human Arrival Platform</tspan>
    <tspan x="80" dy="92" fill="#c49228">for International Talent.</tspan>
  </text>
  <text x="80" y="540" font-family="DM Sans,sans-serif" font-size="24" fill="#1a2340" opacity="0.7">
    Internationales Onboarding — endlich strukturiert.
  </text>
  <text x="80" y="580" font-family="DM Sans,sans-serif" font-size="14" fill="#1a2340" opacity="0.45" letter-spacing="2">
    DSGVO-KONFORM  ·  HOSTING IN DER EU  ·  MADE IN GERMANY
  </text>
</svg>
