<svg xmlns="http://www.w3.org/2000/svg" viewBox="0 0 1200 630">
  <defs>
    <radialGradient id="g" cx="80%" cy="20%" r="80%">
      <stop offset="0%" stop-color="#c49228" stop-opacity="0.25"/>
      <stop offset="60%" stop-color="#1a2340" stop-opacity="0"/>
    </radialGradient>
  </defs>
  <rect width="1200" height="630" fill="#f0ebe0"/>
  <rect width="1200" height="630" fill="url(#g)"/>
  <g transform="translate(80,80)">
    <g transform="scale(1.25)">
      <path d="M32 6 L58 57 L45.5 57 L32 28 L18.5 57 L6 57 Z" fill="#c49228"/>
      <path d="M32 28 l2.3 5.5 5.5 2.3 -5.5 2.3 -2.3 5.5 -2.3 -5.5 -5.5 -2.3 5.5 -2.3 Z" fill="#a9781f"/>
      <path d="M14 49 Q32 41 50 49" fill="none" stroke="#c49228" stroke-width="2.6" stroke-linecap="round"/>
      <rect x="27.4" y="43.1" width="3" height="3.4" fill="#1a1a1a"/>
      <rect x="30.5" y="42.7" width="3" height="3.4" fill="#DD0000"/>
      <rect x="33.6" y="43.1" width="3" height="3.4" fill="#FFCE00"/>
    </g>
    <text x="104" y="42" font-family="Georgia,serif" font-size="30" font-weight="700" fill="#1a2340" letter-spacing="4">ARRIVAL</text>
    <text x="105" y="66" font-family="Georgia,serif" font-size="15" font-weight="500" fill="#c49228" letter-spacing="8">GERMANY</text>
  </g>
  <text x="80" y="290" font-family="Georgia,serif" font-size="78" font-weight="700" fill="#1a2340">
    <tspan x="80" dy="0">Human Arrival Platform</tspan>
    <tspan x="80" dy="92" fill="#c49228">for International Talent.</tspan>
  </text>
  <text x="80" y="540" font-family="DM Sans,sans-serif" font-size="24" fill="#1a2340" opacity="0.7">
    Internationales Onboarding — endlich strukturiert.
  </text>
  <text x="80" y="580" font-family="DM Sans,sans-serif" font-size="14" fill="#1a2340" opacity="0.45" letter-spacing="2">
    DSGVO-KONFORM  ·  HOSTING IN DER EU  ·  MADE IN GERMANY
  </text>
</svg>
